<?xml version="1.0" encoding="UTF-8" standalone="no"?>
<!-- Created with Inkscape (http://www.inkscape.org/) -->

<svg
   width="210mm"
   height="297mm"
   viewBox="0 0 210 297"
   version="1.1"
   id="svg5"
   xml:space="preserve"
   inkscape:version="1.2 (dc2aedaf03, 2022-05-15)"
   sodipodi:docname="selectConstraints_icon.svg"
   inkscape:export-filename="selectConstraints_icon.png"
   inkscape:export-xdpi="12.54"
   inkscape:export-ydpi="12.54"
   xmlns:inkscape="http://www.inkscape.org/namespaces/inkscape"
   xmlns:sodipodi="http://sodipodi.sourceforge.net/DTD/sodipodi-0.dtd"
   xmlns:xlink="http://www.w3.org/1999/xlink"
   xmlns="http://www.w3.org/2000/svg"
   xmlns:svg="http://www.w3.org/2000/svg"><sodipodi:namedview
     id="namedview7"
     pagecolor="#ffffff"
     bordercolor="#666666"
     borderopacity="1.0"
     inkscape:showpageshadow="2"
     inkscape:pageopacity="0.0"
     inkscape:pagecheckerboard="0"
     inkscape:deskcolor="#d1d1d1"
     inkscape:document-units="mm"
     showgrid="false"
     inkscape:zoom="0.70710678"
     inkscape:cx="193.04015"
     inkscape:cy="521.84481"
     inkscape:window-width="1046"
     inkscape:window-height="1041"
     inkscape:window-x="866"
     inkscape:window-y="11"
     inkscape:window-maximized="0"
     inkscape:current-layer="layer1" /><defs
     id="defs2"><linearGradient
       id="linearGradient1293"
       inkscape:swatch="solid"><stop
         style="stop-color:#000000;stop-opacity:1;"
         offset="0"
         id="stop1291" /></linearGradient><inkscape:path-effect
       effect="offset"
       id="path-effect50154"
       is_visible="true"
       lpeversion="1.2"
       linejoin_type="miter"
       unit="mm"
       offset="2.1"
       miter_limit="4"
       attempt_force_join="false"
       update_on_knot_move="true" /><linearGradient
       id="linearGradient36782"
       inkscape:swatch="solid"><stop
         style="stop-color:#4985af;stop-opacity:1;"
         offset="0"
         id="stop36780" /></linearGradient><inkscape:path-effect
       effect="offset"
       id="path-effect35632"
       is_visible="true"
       lpeversion="1.2"
       linejoin_type="miter"
       unit="mm"
       offset="1.4"
       miter_limit="4"
       attempt_force_join="false"
       update_on_knot_move="true" /><linearGradient
       id="linearGradient11260"
       inkscape:swatch="solid"><stop
         style="stop-color:#cd4848;stop-opacity:1;"
         offset="0"
         id="stop11258" /></linearGradient><linearGradient
       id="linearGradient10935"
       inkscape:swatch="solid"><stop
         style="stop-color:#000000;stop-opacity:1;"
         offset="0"
         id="stop10933" /></linearGradient><filter
       style="color-interpolation-filters:sRGB;"
       inkscape:label="Drop Shadow"
       id="filter22915"
       x="-0.0070329387"
       y="-0.0069793324"
       width="1.0475215"
       height="1.0139587"><feFlood
         flood-opacity="1"
         flood-color="rgb(50,50,50)"
         result="flood"
         id="feFlood22905" /><feComposite
         in="flood"
         in2="SourceGraphic"
         operator="in"
         result="composite1"
         id="feComposite22907" /><feGaussianBlur
         in="composite1"
         stdDeviation="0"
         result="blur"
         id="feGaussianBlur22909" /><feOffset
         dx="0.19999999999999996"
         dy="1.38778e-16"
         result="offset"
         id="feOffset22911" /><feComposite
         in="SourceGraphic"
         in2="offset"
         operator="over"
         result="composite2"
         id="feComposite22913" /></filter><linearGradient
       inkscape:collect="always"
       xlink:href="#linearGradient36782"
       id="linearGradient1295"
       x1="23.093216"
       y1="168.58395"
       x2="89.753838"
       y2="168.58395"
       gradientUnits="userSpaceOnUse" /></defs><g
     id="g50028"
     transform="translate(-1.2775213,-47.739709)"
     inkscape:path-effect="#path-effect50154"
     inkscape:export-filename="selectConstraints_icon.png"
     inkscape:export-xdpi="13.364657"
     inkscape:export-ydpi="13.364657"
     style="stroke:none;stroke-opacity:1;fill:url(#linearGradient1295);fill-opacity:1.0"><path
       id="path49206"
       style="opacity:1;fill:url(#linearGradient1295);fill-opacity:1.0;stroke:none;stroke-width:1.33626;stroke-linecap:round;stroke-linejoin:round;stroke-miterlimit:3.9;stroke-dasharray:none;stroke-dashoffset:0;stroke-opacity:1;paint-order:stroke markers fill"
       transform="scale(0.26458333)"
       d="m 267.61565,514.71705 -0.0591,0.7234 c -8.03896,-0.12314 -16.73536,0.11743 -21.71752,1.92669 -11.23519,4.08 -18.59484,9.10201 -31.32136,20.68407 -9.04765,8.234 -16.05932,16.67251 -19.61368,24.27163 -2.11956,4.5315 -2.7283,7.95689 -2.72392,13.97394 0.002,2.11067 0.17432,3.73523 0.36171,5.38877 -19.04214,2.267 -33.43333,10.09576 -54.19783,28.5236 -12.24009,10.86274 -36.47604,37.39318 -42.25394,46.92669 -6.125106,10.10639 -9.56784,24.99912 -8.66634,37.0571 1.014645,13.57126 5.499776,24.68009 14.36516,36.47392 7.93688,10.55856 19.1474,19.27185 30.84892,23.78441 8.14615,3.14151 13.09675,4.15212 22.84695,4.68752 1.25743,0.0691 1.76049,-0.0558 2.79773,-0.0664 0.48759,0.0346 1.78187,0.44198 1.7938,0.44292 0.21384,0.0169 0.359,0.0247 0.58317,0.0369 0.46348,0.0252 0.98563,0.0453 1.43947,0.0591 0.15029,0.006 0.26575,0.007 0.26575,0.007 h 0.0886 0.0886 c 0.16387,0 0.27418,-0.14468 0.43554,-0.15499 l 2.25885,0.0221 c 3.84955,0.0251 4.14862,-0.69392 4.14862,-0.69392 l 0.0369,-0.007 h 0.0443 c 3.35501,-0.29661 7.17507,-1.0933 9.99507,-1.93406 2.39177,-0.70556 5.25635,-1.61824 8.08317,-2.96012 l 0.0443,-0.0148 0.0443,-0.0222 c 0,0 -0.027,0.34141 2.22195,-0.84892 4.39863,-2.328 8.07668,-4.71114 12.12106,-7.88387 0,0 -1.0865,0.95736 0.46506,-0.28048 1.26325,-1.00781 2.08839,-2.00239 2.53937,-2.38435 2.72921,-2.30094 5.56285,-4.67346 9.41191,-8.40797 1.31351,-1.27442 1.61693,-1.95886 2.05216,-2.41391 l 0.0369,-0.0369 c 0.001,-0.001 0.006,-0.006 0.007,-0.007 1.78152,-1.76545 4.74152,-4.07327 6.54774,-6.25984 2.10317,-2.54616 3.38871,-5.05758 4.5251,-6.84303 l 0.0738,-0.11074 c 0.79142,-1.17898 2.17097,-3.02887 3.09301,-4.84989 0.63913,-1.27011 1.16825,-2.52226 1.59449,-3.60975 l 0.0221,-0.0443 0.0148,-0.0443 c 1.10287,-2.9215 1.79948,-5.93038 2.06693,-8.98375 l -0.007,0.11074 c 0,0 0.58316,0.80221 0.58316,-3.17423 0,-2.85691 -1.0999,-4.99015 -1.0999,-4.99015 l 0.0295,0.1624 c -0.004,-0.0274 -0.0398,-0.16112 -0.0443,-0.19192 2.21804,-0.16437 4.69673,-0.27693 7.61811,-0.89322 2.92295,-0.61663 2.89409,-1.0188 2.8937,-1.01869 3.55355,-0.92187 7.07507,-2.42268 10.01722,-3.68357 1.54462,-0.6336 4.39725,-1.21357 7.03494,-2.70175 2.8545,-1.61054 9.22967,-5.91769 12.6378,-8.48179 1.44416,-1.0865 2.51782,-2.22713 3.15207,-2.72395 l 0.0295,-0.0221 0.0295,-0.0222 c 2.37399,-1.89653 5.0345,-4.30292 7.37451,-6.37796 l 0.0369,-0.0369 c 10.52939,-9.10031 21.09374,-19.52172 35.85384,-36.51822 5.10351,-5.87682 6.49359,-7.60138 8.59252,-10.76281 1.20968,-1.82154 0.19191,-0.38033 0.18455,-0.36907 0,0 -3.04267,4.73477 0.13287,-0.14766 1.44327,-2.21722 0.4971,-1.05517 0.50197,-1.06299 2.72084,-4.38116 4.76014,-9.09623 6.28937,-13.95916 l 0.0148,-0.0517 0.0148,-0.0443 c 0.34708,-1.15223 0.59236,-2.34361 0.79724,-3.20372 l 0.0295,-0.12552 c 0.55308,-2.10992 1.46186,-4.89498 1.86023,-7.80264 0.32354,-2.36172 0.0979,-5.18676 0.11811,-7.61809 0,0 0.11226,1.27887 0.11073,-0.93752 -0.001,-2.10844 -0.0962,-0.78882 -0.096,-0.76773 -0.014,-1.80718 0.27511,-4.07932 -0.0295,-6.34103 -0.52577,-3.90334 -1.36614,-7.35178 -2.281,-10.56348 0,0 0.2012,0.34836 -0.28052,-1.19588 -1.21345,-3.9795 -2.75564,-7.81054 -4.7687,-11.40502 -1.02026,-1.82174 -1.96555,-2.62141 -2.17027,-2.93798 l -0.007,-0.0221 c -0.001,-0.002 -0.0137,-0.013 -0.0148,-0.0148 0.002,-0.0138 0.088,-0.46333 -1.28445,-2.56887 -2.98979,-4.58676 -6.37657,-8.62688 -9.96555,-12.28346 0,0 1.03397,0.65057 -1.0999,-1.40995 -1.59781,-1.54307 -3.03003,-2.22531 -3.40305,-2.54676 -3.14507,-2.72935 -6.46396,-5.17437 -10.03199,-7.33021 -1.47556,-0.88872 -3.36829,-2.08985 -5.23376,-3.00442 -4.72335,-2.32706 -9.8576,-4.37915 -15.39124,-5.61026 -3.57211,-0.79475 -0.73922,-0.10408 -0.49459,-0.0443 0.0486,0.005 1.51845,0.17401 -0.92273,-0.31004 -3.51658,-0.69713 -6.3389,-0.96332 -10.40847,-1.04821 z m -1.94881,68.04623 c 0.3547,0.75519 1.08354,1.09826 0.77509,2.25151 -0.56004,2.09389 -1.66252,4.26255 -8.41535,11.78887 -1.76301,1.96494 -2.95528,3.15893 -4.58415,4.88682 -0.23759,-0.19404 -0.81507,-0.90671 -0.9375,-1.04826 -0.0713,-0.083 -1.21029,-1.79315 -2.62058,-3.44734 0.69135,-0.611 1.53189,-1.11674 2.02264,-1.67569 0,0 2.85002,-2.72383 5.52165,-5.30755 l 0.0664,-0.0591 c 0.0109,-0.0105 0.0113,-0.0116 0.0222,-0.0222 4.02997,-3.78002 6.26774,-5.78842 8.14961,-7.36713 z m -6.71753,27.36469 0.0221,0.007 c 5e-5,1.9e-4 0.007,0.0148 0.007,0.0148 l 0.22146,0.81199 c -0.0328,-0.1502 -0.2025,-0.60722 -0.25099,-0.83414 z m -86.0064,63.07087 c 1.34422,1.61631 2.8528,2.83064 4.38485,4.24456 -2.60994,2.1261 -4.95481,3.66463 -7.77313,6.33369 -4.12323,3.90475 -7.40167,6.84499 -8.79922,8.08316 0.0118,0.0318 0.0551,0.19019 -0.0738,-0.53151 l 0.0443,0.25837 c -0.0865,-0.59857 -0.0754,-1.44291 0.15502,-2.50984 0.34268,-1.4787 0.35095,-1.79497 0.56102,-2.18505 1.25696,-2.31621 6.48414,-8.32362 11.50098,-13.69338 z"
       inkscape:original-d="m 155.91704,751.20797 c -9.30347,-0.51088 -12.81423,-1.22596 -20.42076,-4.15935 -10.3038,-3.97357 -20.20176,-11.62506 -27.36446,-21.15377 -8.04057,-10.69656 -11.908006,-20.4586 -12.792618,-32.29064 -0.789226,-10.55623 2.260785,-23.63663 7.544158,-32.35415 4.75973,-7.85353 28.99421,-34.69234 40.73219,-45.10945 21.32174,-18.9224 34.56877,-25.6924 53.11129,-27.14295 l 6.50451,-0.50884 -1.55499,-2.91642 c -1.26913,-2.38027 -1.55594,-4.08635 -1.56007,-9.28038 -0.004,-5.50056 0.26416,-6.93956 1.97937,-10.6066 2.99579,-6.40487 9.07612,-13.85189 17.76913,-21.76316 12.31639,-11.2088 18.72707,-15.47595 28.68007,-19.09036 5.67693,-2.06156 25.23536,-2.59011 32.88319,-0.88863 16.20943,3.60626 30.44214,13.78976 40.20421,28.7661 6.99404,10.7298 9.63396,19.35167 9.64231,31.49138 0.008,11.61632 -2.82308,21.82281 -8.4516,30.46945 -4.15428,6.3819 -17.46763,21.29686 -31.41538,35.19469 -25.07366,24.98395 -40.96099,34.17543 -61.27115,35.44793 l -6.74435,0.42256 1.73309,3.61463 c 1.34324,2.80157 1.72718,4.72801 1.70685,8.56438 -0.0509,9.61216 -4.79758,17.65008 -17.97065,30.4311 -9.77203,9.48121 -15.07172,13.59709 -22.7203,17.64515 -9.4014,4.97576 -15.48838,6.02651 -30.22404,5.21733 z m 8.21315,-51.70173 c 1.12194,-0.87456 6.01738,-5.3569 10.87874,-9.96073 4.86136,-4.60384 10.19117,-9.04285 11.84404,-9.86449 1.65286,-0.82163 2.98805,-1.66911 2.96708,-1.8833 -0.021,-0.21418 -1.8705,-1.69496 -4.11008,-3.29063 -4.77173,-3.39978 -9.09269,-8.42369 -10.32298,-12.00238 l -0.87218,-2.53701 -4.53708,4.47765 c -6.75879,6.67027 -13.97848,15.35608 -15.89816,19.12662 -2.00541,3.93894 -2.27366,9.61444 -0.58917,12.46555 1.4167,2.39788 5.14833,5.05885 7.0943,5.05885 0.82807,0 2.42354,-0.71556 3.54549,-1.59013 z m 99.80469,-97.40482 c 7.00189,-7.80388 9.04844,-10.82858 10.1739,-15.03652 1.51797,-5.67555 -1.08352,-11.53381 -6.049,-13.62164 -2.79287,-1.17431 -4.06033,-0.30266 -16.37993,11.26474 -5.24057,4.92059 -10.63469,9.47413 -11.98692,10.11896 -2.29964,1.09663 -3.26276,2.32471 -1.82314,2.32471 0.34952,0 2.98745,2.19648 5.86208,4.88107 4.77585,4.46012 6.82922,7.2845 7.97699,10.97221 0.37856,1.2163 0.72313,1.06912 3.31069,-1.41421 1.58849,-1.52449 5.60039,-5.79469 8.91533,-9.48932 z M 162.48242,751.68297 c -0.0161,-5.7e-4 -0.0908,-0.003 -0.16601,-0.005 -0.37405,-0.0114 -0.82574,-0.0308 -1.23047,-0.0528 -0.44932,-0.0245 -0.46453,-0.0257 -0.36328,-0.0306 0.39513,-0.0189 1.23711,-0.0843 1.71083,-0.13274 0.0269,-0.003 0.0489,-0.005 0.0489,-0.005 -3e-5,1.2e-4 -0.004,0.0113 -0.008,0.025 -0.0236,0.0752 0.0111,0.1607 0.0801,0.19724 0.0116,0.006 0.0115,0.006 -0.0156,0.006 -0.015,-3.4e-4 -0.0405,-10e-4 -0.0566,-0.002 z m 1.83152,-0.40307 c 5.01499,-0.75112 10.68793,-2.74319 15.61886,-5.48462 6.92529,-3.85022 14.15388,-9.69177 24.66649,-19.93341 6.2485,-6.08743 10.88591,-12.46553 13.27864,-18.26288 3.01429,-7.3033 2.82386,-13.57603 -0.60424,-19.90291 l -1.09964,-2.02951 3.54746,0.0251 3.54746,0.0251 1.0169,1.85615 c 1.99956,3.64982 2.78379,6.52485 2.78379,10.20548 0,6.97297 -3.21827,14.10636 -10.15021,22.49821 -3.33677,4.03951 -13.38687,13.53322 -19.42806,18.35249 -11.16279,8.90494 -21.34698,12.99063 -32.2041,12.91964 l -2.65273,-0.0173 z M 153.58741,701.363 c -2.31879,-0.60779 -4.27547,-1.75885 -5.90286,-3.47245 -1.15874,-1.22014 -1.7577,-2.20179 -2.30445,-3.77686 -0.55501,-1.59889 -0.55949,-4.92857 -0.009,-6.9569 1.05639,-3.89484 3.65701,-7.80147 9.31379,-13.99114 1.33285,-1.4584 3.63635,-4.00724 5.11889,-5.66408 3.04732,-3.4056 4.18889,-4.45453 9.19054,-8.44476 1.94704,-1.55331 4.05051,-3.26865 4.67438,-3.81185 l 1.13432,-0.98764 -0.12181,0.96888 c -0.067,0.53289 -0.17198,1.90434 -0.23331,3.04767 l -0.11149,2.07878 -0.9894,0.83046 c -2.45363,2.0595 -3.93018,3.48204 -5.83189,5.61858 -1.12504,1.26396 -3.21031,3.57089 -4.63394,5.12653 -4.49378,4.91047 -6.27162,7.10215 -7.99606,9.85737 -1.90867,3.04959 -2.78665,5.82716 -2.80724,8.88096 -0.0212,3.14496 0.77219,5.19697 2.85536,7.385 1.27989,1.34431 2.51053,2.18785 4.18434,2.86814 l 1.00896,0.41007 -0.69036,0.19168 c -1.11919,0.31074 -4.39728,0.22193 -5.84843,-0.15844 z m 72.33321,-16.00264 c 11.06992,-1.33898 20.25608,-4.7124 29.34746,-10.77721 14.26395,-9.51542 27.38308,-21.51767 44.54235,-40.75031 5.98389,-6.70693 12.09967,-13.81914 13.68092,-15.9099 11.47933,-15.17828 14.14257,-36.28545 6.88096,-54.53411 -2.07072,-5.20377 -6.6796,-12.74385 -10.91448,-17.85595 -1.77096,-2.1378 -4.98968,-5.42392 -7.25807,-7.41007 -9.64277,-8.44295 -20.70807,-13.55661 -32.94761,-15.22622 l -1.78901,-0.24404 3.71231,0.0774 c 3.61857,0.0755 6.13933,0.32609 9.01561,0.89629 11.72685,2.32474 22.48179,8.04745 31.51092,16.76699 4.94155,4.77211 9.26102,10.49804 13.12746,17.40188 3.23379,5.77419 5.32419,12.43112 6.39124,20.35302 0.3513,2.60812 0.29429,10.67813 -0.0955,13.52342 -1.20379,8.78637 -4.10183,16.70821 -8.57967,23.4527 -1.91622,2.8862 -2.90793,4.12474 -7.97135,9.95536 -19.32982,22.25864 -31.36914,34.11314 -45.25484,44.56009 -3.19876,2.4066 -9.41009,6.58412 -11.76545,7.91303 -4.9498,2.79271 -11.6692,5.28141 -17.68724,6.55093 -4.48866,0.94689 -7.64094,1.30562 -12.53177,1.42612 l -3.53553,0.0871 z m 18.53003,-66.03086 c 0.0592,-0.33609 0.15859,-1.68499 0.22076,-2.99755 0.18933,-3.99689 -0.42704,-5.89454 -2.9734,-9.15433 -2.75418,-3.52585 -6.41644,-6.93261 -10.25506,-9.53962 -0.94902,-0.64454 -1.66497,-1.22066 -1.59099,-1.28026 0.074,-0.0596 0.57204,-0.30165 1.10679,-0.53787 1.49764,-0.66156 3.72577,-1.9699 4.97197,-2.9195 0.61975,-0.47225 2.75759,-2.45938 4.75075,-4.41585 8.99515,-8.82956 13.84422,-13.27028 15.78348,-14.45429 1.81878,-1.11046 3.19532,-1.45052 5.87167,-1.45052 1.26395,0 2.53192,0.065 2.8177,0.14436 0.51041,0.14179 0.49783,0.15489 -0.71054,0.73939 -1.21395,0.5872 -3.56254,2.48408 -6.83235,5.51829 -2.39361,2.22114 -11.10857,10.65855 -11.67211,11.30039 -0.76996,0.87694 -3.04101,2.72637 -4.52283,3.68318 -1.12731,0.72791 -3.50109,1.92766 -4.51138,2.28014 -0.25982,0.0906 0.0383,0.35987 1.41421,1.27696 5.10091,3.40005 10.69268,9.07573 12.46919,12.6563 0.46321,0.9336 1.18037,3.61056 1.00448,3.74944 -3.00624,2.37376 -5.44044,4.32375 -6.31978,5.06265 l -1.13029,0.94976 z" /></g><g
     inkscape:label="Layer 1"
     inkscape:groupmode="layer"
     id="layer1"
     transform="matrix(9.6076082,0,0,9.6076082,-681.08375,-1264.2389)"
     style="display:inline;stroke-width:0.0520421;stroke-dasharray:none;filter:url(#filter22915)"
     sodipodi:insensitive="true"
     inkscape:export-filename="selectConstraints_icon.png"
     inkscape:export-xdpi="12.543832"
     inkscape:export-ydpi="12.543832"><path
       id="path5263-1"
       style="display:inline;fill:#cd4848;fill-opacity:1;stroke:#000000;stroke-width:0.08326734;stroke-linecap:round;stroke-linejoin:round;stroke-miterlimit:3.9;stroke-dasharray:none;stroke-dashoffset:0;stroke-opacity:1;paint-order:markers fill stroke"
       d="m 75.859423,145.56049 c 0.190608,-0.21902 0.578265,-0.24734 0.736721,0.0251 0.197392,0.28951 -0.06168,0.61921 -0.258045,0.82971 -0.33008,0.31283 -0.688121,0.69587 -1.176436,0.70588 -0.561493,0.0267 -1.090019,-0.30111 -1.373872,-0.77575 -0.326733,-0.48749 -0.297815,-1.17289 0.08081,-1.62384 0.48389,-0.56056 0.979898,-1.13687 1.614125,-1.53206 0.569607,-0.33406 1.415941,-0.30357 1.834082,0.25575 0.208545,0.25922 0.01217,0.67092 -0.318242,0.6779 -0.326597,0.0596 -0.595877,-0.27324 -0.923327,-0.14344 -0.403029,0.15733 -0.670292,0.52323 -0.969843,0.81846 -0.218487,0.26249 -0.567377,0.53049 -0.500363,0.91463 0.07721,0.36261 0.556278,0.50839 0.825205,0.25229 0.150213,-0.12664 0.285805,-0.27028 0.429189,-0.40462 z m 1.383445,-2.84174 c -0.190609,0.21902 -0.578264,0.24735 -0.736723,-0.0251 -0.197392,-0.28951 0.06166,-0.61921 0.258034,-0.82971 0.330081,-0.31282 0.688114,-0.69587 1.176433,-0.70588 0.561493,-0.0267 1.090025,0.3011 1.373878,0.77575 0.32668,0.48752 0.297781,1.17291 -0.08088,1.62384 -0.483896,0.56056 -0.979902,1.13687 -1.614131,1.53206 -0.569608,0.33406 -1.415938,0.30357 -1.834084,-0.25574 -0.208542,-0.25921 -0.0122,-0.67092 0.31821,-0.67791 0.326597,-0.0596 0.595873,0.27325 0.923326,0.14345 0.403028,-0.15733 0.670293,-0.52323 0.969843,-0.81845 0.21849,-0.26249 0.567391,-0.5305 0.500359,-0.91464 -0.07724,-0.3626 -0.556295,-0.5084 -0.825229,-0.25229 -0.150182,0.12662 -0.285704,0.27027 -0.429038,0.40461 z"
       sodipodi:insensitive="true" /></g></svg>
